<svg width="327" height="375" viewBox="0 0 327 375" fill="none" xmlns="http://www.w3.org/2000/svg">
<g clip-path="url(#clip0_184_1260)">
<path d="M156.925 351.277L156.508 341.897C156.465 341.874 156.421 341.852 156.378 341.829C151.912 339.483 146.795 343.729 148.221 348.571C149.563 353.126 150.464 358.037 152.921 362.024C154.372 364.34 156.326 366.3 158.637 367.757C160.947 369.215 163.556 370.133 166.27 370.444L171.943 373.921C172.722 369.577 172.55 365.116 171.44 360.845C170.33 356.573 168.308 352.594 165.514 349.18C163.927 347.28 162.108 345.588 160.099 344.144C158.74 347.73 156.925 351.277 156.925 351.277Z" fill="#F2F2F2"/>
<path d="M106.13 256.094C95.207 244.818 79.3783 238.352 62.7024 238.352L62.0592 238.354C51.0752 238.358 40.2872 235.442 30.7985 229.904L29.8111 229.328L30.6064 228.508C34.9118 224.049 38.5068 218.954 41.2654 213.402C39.3062 215.231 36.9694 216.606 34.4204 217.43C31.8714 218.254 29.1726 218.507 26.5149 218.172C23.7091 217.837 21.0154 216.871 18.636 215.345C16.2566 213.82 14.2531 211.775 12.7759 209.364C6.94755 199.898 0 186.467 0 176.236C0.00907281 167.587 1.8182 159.035 5.31207 151.126C8.80595 143.216 13.9079 136.121 20.2928 130.294C24.3349 126.646 27.5636 122.186 29.7683 117.206C31.9729 112.225 33.104 106.835 33.0879 101.387L33.0847 100.612C33.0836 93.4392 33.9593 86.2936 35.6921 79.3342L35.8681 78.6314L36.5905 78.6566C41.2489 78.8153 45.9099 78.4245 50.477 77.4922C46.193 76.9662 42.0021 75.8505 38.0232 74.1767L37.246 73.8621L37.5098 73.065C55.6903 61.7977 96.729 67.6325 120.549 13.0827C139.864 -31.1498 208.013 52.3479 208.013 100.612C208.013 105.536 203.144 112.044 206.789 115.299C246.193 150.486 219.005 173.081 210.433 195.817C208.399 201.211 212.809 207.133 212.809 212.969C212.809 213.959 212.784 214.981 212.734 216.007L212.658 217.584L211.344 216.709C208.745 215.005 206.336 213.027 204.158 210.809C206.417 216.014 207.482 221.66 207.274 227.331C207.066 233.003 205.59 238.555 202.955 243.58C198.826 251.381 194.83 256.966 191.081 260.179C179.07 270.467 163.586 275.774 147.795 275.015C132.005 274.256 117.1 267.487 106.13 256.094Z" fill="#E6E6E6"/>
<path d="M172.1 373.458C172.369 373.458 172.628 373.361 172.831 373.185C173.034 373.008 173.166 372.765 173.204 372.499C173.251 372.165 177.896 338.638 173.724 294.078C169.872 252.926 157.501 193.653 120.443 144.973C120.355 144.856 120.244 144.758 120.117 144.684C119.99 144.61 119.85 144.562 119.705 144.542C119.559 144.522 119.412 144.531 119.27 144.569C119.128 144.606 118.995 144.671 118.878 144.76C118.762 144.849 118.664 144.96 118.59 145.087C118.516 145.214 118.468 145.355 118.449 145.5C118.429 145.646 118.438 145.794 118.476 145.935C118.514 146.077 118.579 146.21 118.668 146.327C155.406 194.587 167.677 253.425 171.502 294.286C175.649 338.587 171.041 371.853 170.994 372.184C170.972 372.342 170.983 372.504 171.029 372.657C171.074 372.811 171.152 372.953 171.257 373.074C171.362 373.194 171.491 373.291 171.637 373.358C171.782 373.424 171.94 373.458 172.1 373.458Z" fill="#3F3D56"/>
<path d="M141.859 213.638C142.094 213.639 142.324 213.564 142.515 213.426C142.706 213.287 142.848 213.091 142.921 212.867C142.994 212.643 142.994 212.401 142.921 212.176C142.848 211.952 142.706 211.756 142.516 211.618C142.381 211.52 128.824 201.742 108.557 194.315C89.8211 187.449 61.3306 181.225 32.0002 190.568C31.8603 190.613 31.7306 190.684 31.6183 190.779C31.5061 190.873 31.4136 190.989 31.3461 191.119C31.2786 191.25 31.2374 191.392 31.225 191.538C31.2125 191.685 31.229 191.832 31.2735 191.972C31.318 192.112 31.3896 192.242 31.4842 192.354C31.5789 192.466 31.6947 192.559 31.8251 192.626C31.9554 192.693 32.0978 192.734 32.244 192.746C32.3902 192.759 32.5373 192.742 32.6771 192.697C61.4066 183.546 89.3806 189.667 107.789 196.413C127.767 203.735 141.071 213.329 141.203 213.425C141.394 213.564 141.623 213.639 141.859 213.638Z" fill="#3F3D56"/>
<path d="M192.94 86.2961C192.957 86.0608 192.899 85.826 192.775 85.6255C192.65 85.4251 192.466 85.2691 192.247 85.1801C192.029 85.0911 191.788 85.0737 191.559 85.1301C191.33 85.1866 191.125 85.3142 190.973 85.4946C190.866 85.6219 180.147 98.4521 171.286 118.151C163.095 136.361 154.841 164.356 162.039 194.31C162.108 194.598 162.289 194.847 162.542 195.002C162.794 195.156 163.097 195.204 163.385 195.135C163.673 195.066 163.921 194.885 164.076 194.632C164.231 194.38 164.278 194.076 164.209 193.788C157.159 164.447 165.273 136.961 173.321 119.068C182.056 99.6506 192.574 87.0598 192.68 86.9349C192.832 86.7549 192.923 86.5312 192.94 86.2961Z" fill="#3F3D56"/>
<path d="M191.429 143.899C192.371 151.503 197.635 157.773 205.291 157.773C208.967 157.773 212.493 156.311 215.092 153.709C217.692 151.107 219.152 147.578 219.152 143.899C219.152 136.236 212.913 130.733 205.291 130.024C197.202 129.272 190.22 134.135 191.429 143.899Z" fill="#2F2E41"/>
<path d="M211.711 367.348L216.989 367.347L219.5 346.968L211.71 346.968L211.711 367.348Z" fill="#FFB6B6"/>
<path d="M211.525 372.859L227.758 372.858V372.653C227.757 370.976 227.092 369.367 225.907 368.181C224.722 366.996 223.115 366.329 221.439 366.329L218.474 364.078L212.942 366.33L211.525 366.33L211.525 372.859Z" fill="#2F2E41"/>
<path d="M190.918 367.348L196.197 367.347L198.708 346.968L190.917 346.968L190.918 367.348Z" fill="#FFB6B6"/>
<path d="M190.733 372.859L206.965 372.858V372.653C206.965 370.976 206.299 369.367 205.115 368.181C203.93 366.996 202.323 366.329 200.647 366.329L197.682 364.078L192.15 366.33L190.733 366.33L190.733 372.859Z" fill="#2F2E41"/>
<path d="M229.876 239.707L233.608 252.514L229.211 306.755C229.211 306.755 231.475 310.147 229.876 310.147C228.276 310.147 226.225 310.899 227.517 312.924C228.809 314.949 224.393 322.22 224.393 322.22L218.147 360.842L210.187 360.724C210.187 360.724 206.141 358.468 208.412 356.186C210.683 353.904 212.282 353.905 210.15 351.77C208.017 349.635 208.017 350.278 208.017 348.623C208.017 346.967 205.881 326.735 210.947 318.975L209.421 287.333L205.825 318.37L198.421 359.774L190.753 359.711C190.753 359.711 187.212 356.295 187.218 353.765C187.225 351.236 189.406 351.026 187.782 349.53C186.159 348.035 186.159 325.055 190.957 312.281C190.957 312.281 193.671 305.144 190.951 302.699C188.23 300.253 190.947 297.455 190.947 297.455C190.947 297.455 195.256 295.896 190.943 291.404C186.631 286.912 190.92 255.144 190.92 255.144C190.92 255.144 186.206 242.321 190.98 237.278C195.755 232.236 229.876 239.707 229.876 239.707Z" fill="#2F2E41"/>
<path d="M163.407 261.773L170.066 245.666L175.312 248.583L172.144 264.968C172.461 266.006 172.483 267.112 172.206 268.161C171.93 269.211 171.367 270.163 170.58 270.91C169.793 271.656 168.813 272.169 167.751 272.389C166.689 272.609 165.587 272.528 164.568 272.156C163.55 271.783 162.655 271.133 161.985 270.28C161.315 269.426 160.896 268.403 160.776 267.324C160.655 266.245 160.837 265.154 161.302 264.173C161.767 263.193 162.496 262.361 163.407 261.773Z" fill="#FFB6B6"/>
<path d="M275.139 134.41L265.007 148.587L260.558 144.556L267.353 129.316C267.279 128.233 267.508 127.151 268.015 126.192C268.521 125.232 269.285 124.433 270.221 123.884C271.157 123.335 272.227 123.058 273.311 123.084C274.395 123.111 275.45 123.44 276.358 124.033C277.266 124.627 277.99 125.463 278.45 126.446C278.909 127.429 279.085 128.522 278.958 129.6C278.832 130.678 278.407 131.699 277.732 132.549C277.058 133.398 276.159 134.043 275.139 134.41Z" fill="#FFB6B6"/>
<path d="M230.881 241.02C237.452 251.222 204.421 264.169 191.747 258.971C189.527 258.061 181.893 255.055 187.111 250.887C192.329 246.719 186.506 246.133 186.369 243.419C186.277 241.606 187.68 237.626 186.216 237.797C184.752 237.968 183.038 235.459 186.227 234.38C189.415 233.3 186.261 232.316 186.289 231.291C186.594 220.108 195.165 202.322 195.165 202.322L179.72 241.841C179.72 241.841 179.834 248.678 177.864 246.589C175.895 244.499 176.038 251.262 176.038 251.262C176.038 251.262 173.109 253.307 174.793 254.446C176.478 255.585 172.98 259.085 172.98 259.085L164.82 258.502C164.82 258.502 164.947 252.434 166.341 251.092C167.734 249.75 167.05 247.639 167.05 247.639C167.05 247.639 170.678 244.424 168.245 241.815C165.117 238.458 176.522 181.765 180.458 182.326C181.014 179.616 182.308 177.112 184.198 175.092C186.087 173.071 188.498 171.614 191.163 170.879L199.977 168.45L201.542 162.234H213.953L216.114 166.318L225.55 170.58C227.327 168.07 228.655 165.426 235.933 164.568C235.933 164.568 255.543 146.709 254.585 145.315C253.628 143.92 256.668 140.655 256.668 140.655C256.668 140.655 259.264 139.805 257.799 139.351C256.334 138.897 259.103 137.847 259.103 137.847C259.103 137.847 261.668 137.172 260.458 136.284C259.249 135.396 264.495 134.813 264.495 134.813L271.301 140.371L269.925 142.706C269.925 142.706 270.764 145.886 269.67 144.725C268.575 143.564 268.369 146.933 268.369 146.933C268.369 146.933 267.81 150.621 264.495 151.732C261.179 152.844 258.666 163.401 258.666 163.401C250.847 173.576 241.621 181.514 230.687 186.739C234.948 191.635 230.881 241.02 230.881 241.02Z" fill="black"/>
<path d="M206.823 158.597C213.611 158.597 219.115 153.089 219.115 146.294C219.115 139.499 213.611 133.99 206.823 133.99C200.034 133.99 194.531 139.499 194.531 146.294C194.531 153.089 200.034 158.597 206.823 158.597Z" fill="#FFB6B6"/>
<path d="M194.095 147.634C194.484 150.308 196.76 154.038 196.227 154.038C195.694 154.038 191.904 143.016 195.694 142.298C198.444 141.777 199.058 142.234 201.628 141.118L201.265 141.46C202.966 142.698 205.333 141.935 207.274 141.129C209.22 140.329 211.582 139.566 213.288 140.798C214.359 141.572 214.812 142.917 215.479 144.059C216.145 145.206 217.377 146.289 218.646 145.937C219.664 145.654 220.25 144.512 220.245 143.456C220.24 142.399 218.865 141.394 219.328 140.446C220.7 137.637 219.466 135.722 216.476 134.4C215.388 134.235 214.301 134.066 213.213 133.893C213.783 133.103 214.474 132.408 215.26 131.833C214.928 130.981 214.353 130.244 213.608 129.715C212.739 129.197 211.662 129.234 210.654 129.288C208.404 129.405 206.156 129.523 203.91 129.64C202.246 129.725 200.524 129.827 199.037 130.59C197.182 131.545 195.966 133.407 195.081 135.302C193.098 139.56 193.412 142.986 194.095 147.634Z" fill="#2F2E41"/>
<path d="M142.961 374.245L263.85 374.409C264.018 374.409 264.18 374.342 264.299 374.223C264.418 374.104 264.485 373.942 264.485 373.774C264.485 373.605 264.418 373.444 264.299 373.324C264.18 373.205 264.018 373.138 263.85 373.138L142.961 372.974C142.793 372.974 142.632 373.041 142.513 373.16C142.394 373.28 142.327 373.441 142.327 373.61C142.327 373.778 142.394 373.94 142.513 374.059C142.632 374.178 142.793 374.245 142.961 374.245Z" fill="#CACACA"/>
<path d="M99.2392 318.859C99.4621 317.326 97.8578 315.823 95.656 315.502C93.4542 315.182 91.4886 316.165 91.2657 317.698C91.0428 319.231 92.6471 320.734 94.8489 321.054C97.0508 321.375 99.0163 320.392 99.2392 318.859Z" fill="#E6E6E6"/>
<path d="M125.454 316.298C125.677 314.765 124.073 313.262 121.871 312.942C119.669 312.621 117.704 313.604 117.481 315.137C117.258 316.67 118.862 318.173 121.064 318.494C123.266 318.814 125.231 317.831 125.454 316.298Z" fill="#3F3D56"/>
<path d="M92.0607 297.616C92.2836 296.083 90.6793 294.58 88.4775 294.259C86.2757 293.938 84.3101 294.921 84.0872 296.454C83.8644 297.988 85.4686 299.49 87.6704 299.811C89.8723 300.132 91.8378 299.149 92.0607 297.616Z" fill="#FF6584"/>
<path d="M80.6696 288.914C80.6802 287.507 79.8958 286.36 78.9176 286.353C77.9394 286.345 77.1378 287.48 77.1272 288.888C77.1165 290.295 77.9009 291.442 78.8791 291.449C79.8573 291.457 80.6589 290.322 80.6696 288.914Z" fill="#E6E6E6"/>
<path d="M76.8066 272.707C76.8172 271.3 76.0329 270.153 75.0547 270.145C74.0765 270.138 73.2749 271.273 73.2642 272.68C73.2536 274.088 74.038 275.235 75.0162 275.242C75.9944 275.25 76.796 274.115 76.8066 272.707Z" fill="#3F3D56"/>
<path d="M106.846 301.231C106.857 299.823 106.072 298.676 105.094 298.669C104.116 298.662 103.314 299.797 103.304 301.204C103.293 302.611 104.078 303.758 105.056 303.766C106.034 303.773 106.836 302.638 106.846 301.231Z" fill="#E6E6E6"/>
<path d="M94.178 307.562C94.1886 306.154 93.4042 305.007 92.426 305C91.4478 304.993 90.6462 306.128 90.6356 307.535C90.625 308.943 91.4093 310.089 92.3875 310.097C93.3657 310.104 94.1673 308.969 94.178 307.562Z" fill="#FF6584"/>
<path d="M111.813 319.263C111.823 317.856 111.039 316.709 110.061 316.701C109.082 316.694 108.281 317.829 108.27 319.236C108.26 320.644 109.044 321.791 110.022 321.798C111 321.806 111.802 320.671 111.813 319.263Z" fill="#3F3D56"/>
<path d="M300.764 236.679C300.987 235.146 299.383 233.643 297.181 233.323C294.979 233.002 293.014 233.985 292.791 235.518C292.568 237.051 294.172 238.554 296.374 238.875C298.576 239.195 300.541 238.212 300.764 236.679Z" fill="#E6E6E6"/>
<path d="M326.979 234.119C327.202 232.586 325.598 231.083 323.396 230.762C321.194 230.441 319.229 231.424 319.006 232.957C318.783 234.491 320.387 235.993 322.589 236.314C324.791 236.635 326.756 235.652 326.979 234.119Z" fill="#3F3D56"/>
<path d="M293.585 215.436C293.808 213.903 292.204 212.4 290.002 212.08C287.8 211.759 285.835 212.742 285.612 214.275C285.389 215.808 286.993 217.311 289.195 217.632C291.397 217.952 293.363 216.969 293.585 215.436Z" fill="#FF6584"/>
<path d="M282.195 206.735C282.205 205.327 281.421 204.18 280.443 204.173C279.465 204.165 278.663 205.3 278.652 206.708C278.642 208.115 279.426 209.262 280.404 209.27C281.382 209.277 282.184 208.142 282.195 206.735Z" fill="#E6E6E6"/>
<path d="M278.332 190.527C278.342 189.12 277.558 187.973 276.58 187.966C275.602 187.958 274.8 189.093 274.789 190.501C274.779 191.908 275.563 193.055 276.541 193.062C277.52 193.07 278.321 191.935 278.332 190.527Z" fill="#3F3D56"/>
<path d="M308.371 219.051C308.382 217.644 307.598 216.497 306.62 216.489C305.641 216.482 304.84 217.617 304.829 219.024C304.818 220.432 305.603 221.579 306.581 221.586C307.559 221.594 308.361 220.459 308.371 219.051Z" fill="#E6E6E6"/>
<path d="M295.703 225.382C295.714 223.975 294.929 222.828 293.951 222.82C292.973 222.813 292.171 223.948 292.161 225.355C292.15 226.763 292.934 227.91 293.913 227.917C294.891 227.925 295.692 226.79 295.703 225.382Z" fill="#FF6584"/>
<path d="M313.338 237.084C313.348 235.676 312.564 234.529 311.586 234.522C310.608 234.514 309.806 235.649 309.795 237.057C309.785 238.464 310.569 239.611 311.547 239.619C312.526 239.626 313.327 238.491 313.338 237.084Z" fill="#3F3D56"/>
<path d="M203.2 84.5937C203.423 83.0606 201.819 81.5578 199.617 81.2371C197.415 80.9165 195.45 81.8994 195.227 83.4325C195.004 84.9656 196.608 86.4684 198.81 86.7891C201.012 87.1098 202.978 86.1268 203.2 84.5937Z" fill="white"/>
<path d="M229.416 82.0332C229.638 80.5001 228.034 78.9973 225.832 78.6766C223.631 78.356 221.665 79.3389 221.442 80.872C221.219 82.4051 222.823 83.9079 225.025 84.2285C227.227 84.5492 229.193 83.5663 229.416 82.0332Z" fill="#3F3D56"/>
<path d="M196.022 63.3505C196.245 61.8174 194.641 60.3146 192.439 59.994C190.237 59.6733 188.271 60.6562 188.049 62.1893C187.826 63.7225 189.43 65.2253 191.632 65.5459C193.834 65.8666 195.799 64.8837 196.022 63.3505Z" fill="#FF6584"/>
<path d="M184.631 54.6492C184.642 53.2418 183.857 52.0948 182.879 52.0874C181.901 52.08 181.099 53.215 181.089 54.6224C181.078 56.0299 181.862 57.1769 182.841 57.1843C183.819 57.1917 184.62 56.0567 184.631 54.6492Z" fill="#E6E6E6"/>
<path d="M180.768 38.442C180.779 37.0345 179.994 35.8875 179.016 35.8801C178.038 35.8727 177.236 37.0077 177.226 38.4152C177.215 39.8226 177.999 40.9696 178.978 40.977C179.956 40.9844 180.757 39.8494 180.768 38.442Z" fill="#3F3D56"/>
<path d="M210.808 66.9657C210.818 65.5582 210.034 64.4112 209.056 64.4038C208.077 64.3964 207.276 65.5314 207.265 66.9388C207.255 68.3463 208.039 69.4933 209.017 69.5007C209.995 69.5081 210.797 68.3731 210.808 66.9657Z" fill="#E6E6E6"/>
<path d="M198.139 73.2967C198.15 71.8892 197.366 70.7423 196.387 70.7349C195.409 70.7275 194.608 71.8624 194.597 73.2699C194.586 74.6774 195.371 75.8244 196.349 75.8318C197.327 75.8392 198.129 74.7042 198.139 73.2967Z" fill="#FF6584"/>
<path d="M215.774 84.9981C215.785 83.5906 215 82.4437 214.022 82.4363C213.044 82.4289 212.242 83.5638 212.232 84.9713C212.221 86.3788 213.005 87.5258 213.984 87.5332C214.962 87.5406 215.763 86.4056 215.774 84.9981Z" fill="#3F3D56"/>
</g>
<defs>
<clipPath id="clip0_184_1260">
<rect width="327" height="373.843" fill="white" transform="translate(0 0.566162)"/>
</clipPath>
</defs>
</svg>
